<?xml version="1.0" encoding="utf-8"?>
<svg xmlns="http://www.w3.org/2000/svg" viewBox="0 0 300.067 299.828" xmlns:bx="https://boxy-svg.com">
  <defs>
    <bx:export>
      <bx:file format="svg" href="#path1"/>
      <bx:file format="svg" href="#path2" path="Untitled 2.svg"/>
      <bx:file format="svg" href="#path3" path="Untitled 3.svg"/>
      <bx:file format="svg" href="#path4" path="Untitled 4.svg"/>
      <bx:file format="svg" href="#path5" path="Untitled 5.svg"/>
      <bx:file format="svg" href="#path6" path="Untitled 6.svg"/>
      <bx:file format="svg" href="#path7" path="Untitled 7.svg"/>
      <bx:file format="svg" href="#path8" path="Untitled 8.svg"/>
      <bx:file format="svg" href="#object-0" path="Untitled 9.svg"/>
      <bx:file format="svg" href="#object-1" path="Untitled 10.svg"/>
      <bx:file format="svg" href="#object-2" path="Untitled 11.svg" excluded="true"/>
      <bx:file format="svg" href="#object-2" path="Untitled 13.svg"/>
      <bx:file format="svg" path="Untitled 12.svg"/>
    </bx:export>
    <bx:grid x="0.067" y="-0.172" width="100" height="100"/>
  </defs>
  <desc id="desc1">Created with Fabric.js 5.3.0</desc>
  <g id="object-2" style="" transform="matrix(1.260999, 0, 0, 1.260999, -2.269124, -1.023115)">
    <path style="stroke:#000;stroke-width:0;stroke-dasharray:none;stroke-linecap:butt;stroke-dashoffset:0;stroke-linejoin:miter;stroke-miterlimit:4;fill:#dc7734;fill-rule:nonzero;opacity:1" id="path1" stroke-linecap="round" d="M 8.694 56.931 C 8.694 31.156 29.588 10.262 55.363 10.262 L 182.025 10.262 C 207.799 10.262 228.694 31.156 228.694 56.931 L 228.694 183.593 C 228.694 209.368 207.799 230.262 182.025 230.262 L 55.363 230.262 C 29.588 230.262 8.694 209.368 8.694 183.593 L 8.694 56.931 Z" vector-effect="non-scaling-stroke"/>
    <path style="stroke:#598ec7;stroke-width:0;stroke-dasharray:none;stroke-linecap:butt;stroke-dashoffset:0;stroke-linejoin:miter;stroke-miterlimit:4;fill:#343434;fill-rule:nonzero;opacity:1" id="path2" stroke-linecap="round" d="M 118.694 30.262 C 168.374 30.262 208.694 70.582 208.694 120.262 C 208.694 169.942 168.374 210.262 118.694 210.262 C 69.014 210.262 28.694 169.942 28.694 120.262 C 28.694 70.582 69.014 30.262 118.694 30.262 Z" vector-effect="non-scaling-stroke"/>
    <path style="stroke: rgb(255, 255, 255); stroke-width: 0; stroke-dasharray: none; stroke-linecap: butt; stroke-dashoffset: 0; stroke-linejoin: miter; stroke-miterlimit: 4; fill: rgb(17, 17, 17); fill-rule: nonzero; opacity: 1; transform-box: fill-box; transform-origin: 50% 50%;" id="path3" stroke-linecap="round" d="M 147.916 143.747 C 145.961 143.2 144.332 141.846 143.437 140.024 C 142.541 138.202 142.464 136.085 143.225 134.203 C 152.314 111.718 170.144 93.888 192.629 84.799 L 192.66 84.787 C 194.534 84.029 196.643 84.105 198.457 84.997 C 200.271 85.889 201.62 87.511 202.165 89.458 L 213.962 131.584 C 215.855 138.344 213.954 145.6 208.99 150.564 C 204.026 155.528 196.771 157.428 190.011 155.535 L 147.916 143.747 Z" vector-effect="non-scaling-stroke" transform="matrix(-0.707107, 0.707107, -0.707107, -0.707107, -0.000002, 0.000021)"/>
    <path style="stroke: rgb(255, 255, 255); stroke-width: 0; stroke-dasharray: none; stroke-linecap: butt; stroke-dashoffset: 0; stroke-linejoin: miter; stroke-miterlimit: 4; fill: rgb(190, 190, 190); fill-rule: nonzero; opacity: 1; transform-box: fill-box; transform-origin: 50% 50%;" id="path4" stroke-linecap="round" d="M 139.358 138.725 L 140.11 136.212 C 146.405 115.173 163.041 98.826 184.187 92.902 L 185.644 92.494 L 194.301 123.57 C 196.184 130.33 194.272 137.581 189.301 142.535 C 184.33 147.488 177.073 149.374 170.319 147.467 L 139.358 138.725 Z" vector-effect="non-scaling-stroke" transform="matrix(-0.707107, 0.707107, -0.707107, -0.707107, -0.000033, 0.000001)"/>
    <path style="stroke: rgb(255, 255, 255); stroke-width: 0; stroke-dasharray: none; stroke-linecap: butt; stroke-dashoffset: 0; stroke-linejoin: miter; stroke-miterlimit: 4; fill: rgb(17, 17, 17); fill-rule: nonzero; opacity: 1; transform-box: fill-box; transform-origin: 50% 50%;" id="path5" stroke-linecap="round" d="M 59.012 196.487 C 57.057 195.94 55.428 194.585 54.533 192.764 C 53.637 190.942 53.56 188.825 54.321 186.943 C 63.41 164.458 81.24 146.628 103.725 137.539 L 103.756 137.526 C 105.63 136.769 107.739 136.845 109.553 137.737 C 111.367 138.629 112.716 140.251 113.261 142.198 L 125.058 184.324 C 126.951 191.084 125.05 198.339 120.086 203.303 C 115.122 208.267 107.867 210.168 101.106 208.275 L 59.012 196.487 Z" vector-effect="non-scaling-stroke" transform="matrix(-0.25882, -0.965926, 0.965926, -0.25882, 0.000015, -0.000021)"/>
    <path style="stroke: rgb(255, 255, 255); stroke-width: 0; stroke-dasharray: none; stroke-linecap: butt; stroke-dashoffset: 0; stroke-linejoin: miter; stroke-miterlimit: 4; fill: rgb(190, 190, 190); fill-rule: nonzero; opacity: 1; transform-box: fill-box; transform-origin: 50% 50%;" id="path6" stroke-linecap="round" d="M 67.643 181.373 L 68.395 178.86 C 74.69 157.821 91.326 141.474 112.472 135.55 L 113.929 135.141 L 122.585 166.217 C 124.469 172.978 122.557 180.229 117.586 185.182 C 112.615 190.136 105.358 192.022 98.604 190.115 L 67.643 181.373 Z" vector-effect="non-scaling-stroke" transform="matrix(-0.25882, -0.965926, 0.965926, -0.25882, 0.000003, 0.000004)"/>
    <path style="stroke: rgb(255, 255, 255); stroke-width: 0; stroke-dasharray: none; stroke-linecap: butt; stroke-dashoffset: 0; stroke-linejoin: miter; stroke-miterlimit: 4; fill: rgb(17, 17, 17); fill-rule: nonzero; opacity: 1; transform-box: fill-box; transform-origin: 50% 50%;" id="path7" stroke-linecap="round" d="M 58.601 92.231 C 56.646 91.684 55.017 90.33 54.122 88.508 C 53.226 86.686 53.149 84.569 53.91 82.687 C 62.999 60.203 80.829 42.372 103.314 33.283 L 103.345 33.271 C 105.219 32.513 107.328 32.59 109.142 33.481 C 110.956 34.373 112.305 35.995 112.85 37.942 L 124.647 80.068 C 126.54 86.828 124.639 94.084 119.675 99.048 C 114.711 104.012 107.456 105.912 100.695 104.019 L 58.601 92.231 Z" vector-effect="non-scaling-stroke" transform="matrix(0.965926, 0.25882, -0.25882, 0.965926, 0.000001, -0.000003)"/>
    <path style="stroke: rgb(255, 255, 255); stroke-width: 0; stroke-dasharray: none; stroke-linecap: butt; stroke-dashoffset: 0; stroke-linejoin: miter; stroke-miterlimit: 4; fill: rgb(190, 190, 190); fill-rule: nonzero; opacity: 1; transform-box: fill-box; transform-origin: 50% 50%;" id="path8" stroke-linecap="round" d="M 67.378 97.049 L 68.13 94.537 C 74.424 73.497 91.06 57.151 112.207 51.226 L 113.663 50.818 L 122.32 81.894 C 124.203 88.655 122.292 95.905 117.321 100.859 C 112.349 105.813 105.092 107.698 98.338 105.791 L 67.378 97.049 Z" vector-effect="non-scaling-stroke" transform="matrix(0.965926, 0.25882, -0.25882, 0.965926, -0.000001, -0.000002)"/>
    <rect x="117.678" y="3.92" width="117.895" height="234.798" style="stroke: rgb(0, 0, 0); fill: rgb(255, 255, 255); stroke-width: 0px;" id="object-0"/>
    <g transform="matrix(0.583359, 0, 0, 0.583359, -154.899628, -24.48365)" style="" id="object-1">
      <path d="M 503.268 201 C 509.798 202.959 516.026 204.957 522.315 207.484 C 523.57 207.983 523.57 207.983 524.849 208.491 C 527.574 209.573 530.296 210.662 533.018 211.75 C 534.945 212.517 536.872 213.283 538.799 214.049 C 542.733 215.612 546.666 217.178 550.598 218.744 C 558.053 221.712 565.517 224.656 572.982 227.599 C 576.815 229.11 580.647 230.624 584.479 232.137 C 590.663 234.578 596.847 237.017 603.033 239.453 C 607.016 241.022 610.998 242.593 614.98 244.164 C 616.909 244.924 618.837 245.684 620.766 246.443 C 623.447 247.498 626.127 248.555 628.807 249.613 C 629.606 249.927 630.406 250.241 631.229 250.564 C 631.968 250.857 632.708 251.149 633.47 251.45 C 634.11 251.703 634.751 251.955 635.41 252.215 C 637.402 253.057 639.334 254.033 641.268 255 C 641.268 316.71 641.268 378.42 641.268 442 C 595.728 442 550.188 442 503.268 442 C 503.268 362.47 503.268 282.94 503.268 201 Z" fill="#00AD41"/>
      <path d="M 503.268 58 C 548.808 58 594.348 58 641.268 58 C 641.268 115.42 641.268 172.84 641.268 232 C 639.268 233 639.268 233 636.431 232.066 C 635.217 231.57 634.003 231.074 632.752 230.563 C 632.083 230.291 631.413 230.02 630.723 229.741 C 629.259 229.148 627.797 228.551 626.337 227.952 C 623.171 226.652 619.998 225.37 616.826 224.086 C 615.157 223.41 613.488 222.734 611.82 222.056 C 603.93 218.853 596.013 215.719 588.09 212.601 C 584.954 211.367 581.82 210.131 578.685 208.895 C 577.073 208.26 575.461 207.624 573.849 206.989 C 564.706 203.385 555.566 199.775 546.427 196.163 C 543.746 195.103 541.064 194.044 538.383 192.985 C 536.686 192.314 534.989 191.644 533.292 190.973 C 532.575 190.69 531.858 190.407 531.12 190.115 C 521.824 186.439 512.549 182.713 503.268 179 C 503.268 139.07 503.268 99.14 503.268 58 Z" fill="#00AE41"/>
    </g>
  </g>
</svg>